<?xml version="1.0" encoding="UTF-8"?>
<svg xmlns="http://www.w3.org/2000/svg" xmlns:xlink="http://www.w3.org/1999/xlink" viewBox="0 0 160 160" width="160px" height="160px">
<g id="surface32426030">
<path style=" stroke:none;fill-rule:nonzero;fill:rgb(18.039216%,80.000001%,44.313726%);fill-opacity:1;" d="M 151.339844 115.566406 C 149.824219 123.40625 143.378906 129.378906 135.421875 130.5 C 122.910156 132.367188 102.980469 134.5 79.480469 134.5 C 56.359375 134.5 36.308594 132.367188 23.421875 130.5 C 15.460938 129.378906 9.015625 123.40625 7.5 115.566406 C 5.984375 106.980469 4.796875 95.785156 4.796875 80.105469 C 4.796875 64.425781 6.234375 53.230469 7.75 44.644531 C 9.265625 36.804688 15.710938 30.832031 23.671875 29.710938 C 36.179688 27.847656 56.230469 25.496094 79.730469 25.496094 C 103.230469 25.496094 122.78125 27.84375 135.671875 29.710938 C 143.628906 30.832031 150.074219 36.804688 151.589844 44.644531 C 153.105469 53.230469 155.082031 64.425781 155.082031 80.105469 C 154.703125 95.785156 152.855469 106.980469 151.339844 115.566406 Z M 151.339844 115.566406 "/>
<path style=" stroke:none;fill-rule:nonzero;fill:rgb(78.039217%,26.274511%,26.274511%);fill-opacity:1;" d="M 79.808594 26 C 103.25 26 123.511719 28.222656 136.390625 30.089844 C 143.558594 31.097656 149.277344 36.453125 150.621094 43.386719 C 152.070312 51.609375 154 64.347656 154 79.953125 C 153.574219 97.605469 151.699219 110.496094 150.625 116.578125 C 149.277344 123.546875 143.554688 128.902344 136.371094 129.914062 C 128.144531 131.144531 106.15625 134 79.808594 134 C 55.132812 134 33.773438 131.441406 23.230469 129.910156 C 16.0625 128.902344 10.34375 123.546875 9 116.613281 C 7.632812 108.855469 6 96.210938 6 80 C 6 63.789062 7.632812 51.144531 8.996094 43.421875 C 10.34375 36.453125 16.0625 31.097656 23.246094 30.085938 C 31.476562 28.855469 53.464844 26 79.808594 26 M 79.808594 24 C 56.308594 24 35.460938 26.238281 22.953125 28.105469 C 14.992188 29.226562 8.546875 35.199219 7.03125 43.039062 C 5.515625 51.625 4 64.320312 4 80 C 4 95.679688 5.515625 108.375 7.03125 116.960938 C 8.546875 124.800781 14.992188 130.773438 22.953125 131.894531 C 35.839844 133.761719 56.6875 136 79.808594 136 C 103.3125 136 124.160156 133.761719 136.667969 131.894531 C 144.628906 130.773438 151.070312 124.800781 152.589844 116.960938 C 154.105469 108.375 155.621094 95.679688 156 80 C 156 64.320312 154.105469 51.625 152.589844 43.039062 C 151.070312 35.199219 144.628906 29.226562 136.667969 28.105469 C 123.78125 26.238281 103.3125 24 79.808594 24 Z M 79.808594 24 "/>
<path style=" stroke:none;fill-rule:nonzero;fill:rgb(100%,100%,100%);fill-opacity:1;" d="M 64 106 L 64 54 L 112 80 Z M 64 106 "/>
</g>
</svg>
